<svg xmlns="http://www.w3.org/2000/svg" xml:space="preserve" width="115" height="113.9" viewBox="0 0 30.4 30.1">
  <g stroke="#fff">
    <g fill="#fff" stroke-width=".3" transform="translate(-103.1 -99) scale(.99994)">
      <path d="M116 119.6q-.7 1-1.4 1.6-.7.5-1.5.7-.7.2-1.6 0-.8-.2-1.8-.8l-1.6-1q-.2 0-.2-.2v-.4l4.3-6.8q.1-.2.3-.2h.3l1.7 1.1q1 .6 1.5 1.3.5.7.7 1.4.2.8 0 1.6t-.7 1.7zm-1.1-.6.5-1.3q.2-.6.1-1.2 0-.6-.4-1-.4-.6-1.2-1.1l-1-.6-3.7 5.9 1 .6q.8.5 1.4.6h1.2q.6-.2 1-.7.6-.5 1-1.2z" aria-label="D" font-family="Calibri" font-size="14.1"/>
      <path d="m119.1 126 .2.3V126.6l-3.4 2.2h-.3q-.2 0-.3-.2l-4.5-6.9v-.2l.1-.1.3-.2.2-.2h.4l4.2 6.5 2.7-1.7H119l.1.2z" aria-label="L" font-family="Calibri" font-size="14.1"/>
      <circle cx="117.7" cy="110.5" r="2" stroke-width=".4"/>
    </g>
  <g fill="none" stroke-linecap="round">
    <path stroke-linejoin="round" stroke-width="1.299922" d="M15.4 24.6c1.4 0 2.9-.5 4-1.5a5.9 5.9 0 0 0 1.8-3.9"/>
    <path stroke-width="1.0999340000000002" d="M27.8 21.8c.3 0 .5.4.4.8-.2.4-.7.6-1.2.5-.7-.3-1-1-.7-1.7.3-.9 1.4-1.2 2.3-.9 1.1.5 1.6 1.9 1.1 3-.6 1.5-2.4 2-3.8 1.4-1.9-.8-2.6-3-1.8-4.8l.4-.7M25 18.1c-.3 0-.5-.4-.4-.7 0-.5.6-.8 1-.7.8.1 1.1.9 1 1.5-.2 1-1.2 1.4-2.1 1.2-1.2-.3-1.8-1.6-1.6-2.8.4-1.5 2.1-2.3 3.6-1.9 2 .5 3 2.7 2.5 4.6a4.1 4.1 0 0 1-.3.6"/>
    <path stroke-width="1.0999340000000002" d="M24.6 11.4c.3 0 .5.4.5.7-.1.5-.6.8-1 .7-.8 0-1.2-.8-1-1.5 0-1 1-1.5 2-1.3 1.2.2 1.9 1.5 1.6 2.7-.3 1.6-2 2.5-3.4 2.1-2-.4-3.1-2.5-2.7-4.4l.2-.7M20.9 8.2c-.4 0-.6-.3-.6-.6 0-.5.4-1 1-1s1.1.7 1.1 1.4c0 1-.9 1.6-1.8 1.6-1.3 0-2.1-1.2-2-2.4 0-1.6 1.5-2.7 3-2.6 2.1.1 3.5 2 3.3 4a4.1 4.1 0 0 1 0 .7"/>
    <path stroke-width="1.0999340000000002" d="M16.5 3c.2-.3.6-.3.8-.1.4.3.4.9.1 1.3-.4.5-1.2.5-1.7.1-.8-.6-.8-1.7-.2-2.4.8-1 2.3-1 3.2-.1 1.2 1 1.2 2.9.1 4-1.3 1.6-3.7 1.5-5.1.1a4.1 4.1 0 0 1-.5-.5M12 4.5c-.1.3-.5.4-.8.2-.5-.2-.5-.8-.3-1.2.4-.6 1.2-.7 1.8-.4.8.5.9 1.6.4 2.4-.6 1-2.1 1.2-3.1.5-1.3-.8-1.5-2.7-.7-4 1.1-1.7 3.5-1.9 5.1-.8l.6.5"/>
    <path stroke-width="1.0999340000000002" d="M5.8 6.3c0-.3.2-.6.5-.7.5-.1 1 .2 1 .7.3.7-.3 1.3-1 1.5-.9.2-1.7-.5-2-1.4-.2-1.2.8-2.4 2-2.6 1.5-.3 3 .9 3.2 2.4.4 2-1.1 3.8-3 4.1l-.8.1"/>
    <path stroke-width="1.0999340000000002" d="M4.4 10.6c.1.3-.1.6-.4.8-.5.2-1-.1-1.2-.6-.2-.6.2-1.3.8-1.6 1-.3 1.9.3 2.2 1.1.4 1.2-.4 2.4-1.5 2.8-1.5.6-3.1-.4-3.6-1.9-.6-1.9.6-4 2.5-4.5l.7-.2"/>
    </g>
  </g>
</svg>

